# xmcd
#
# Track frame offsets: 
#        150
#        14602
#        27330
#        40816
#        54489
#        67011
#        81114
#        94996
#        111175
#        126308
#        140546
#        156724
#
# Disc length: 2299 seconds
#
# Revision: 0
# Processed by: cddbd v1.5.2PL0 Copyright (c) Steve Scherf et al.
# Submitted via: ExactAudioCopyFreeDBPlugin 1.0
#
DISCID=ae08f90c
DTITLE=Truck Stop - Prachtstücke
DYEAR=2019
DGENRE=Country
TTITLE0=Wir sind noch lange keine Opas
TTITLE1=3000 Jahre
TTITLE2=Gelbe Säcke, blaue Engel, grüner Punkt
TTITLE3=Tausend Meilen
TTITLE4=Unterm Strich
TTITLE5=Erstmal, 'nen Kaffee
TTITLE6=Cisco Dance
TTITLE7=Raus aus meinem Kopf
TTITLE8=Ich will nach Hause
TTITLE9=Nicht der Typ
TTITLE10=Wenn mein Bier bloß so kalt wär
TTITLE11=Wer hat John O Brian gekillt
EXTD=
EXTT0=
EXTT1=
EXTT2=
EXTT3=
EXTT4=
EXTT5=
EXTT6=
EXTT7=
EXTT8=
EXTT9=
EXTT10=
EXTT11=
PLAYORDER=
